<?xml version="1.0" encoding="UTF-8"?>
<svg id="Layer_1" xmlns="http://www.w3.org/2000/svg" version="1.1" viewBox="0 0 627 315">
  <!-- Generator: Adobe Illustrator 29.5.1, SVG Export Plug-In . SVG Version: 2.1.0 Build 141)  -->
  <defs>
    <style>
      .st0 {
        fill-rule: evenodd;
      }

      .st0, .st1 {
        fill: #422f91;
      }

      .st2 {
        fill: #fff;
      }

      .st3 {
        fill: #e92662;
      }
    </style>
  </defs>
  <g>
    <path class="st3" d="M241.6,97.3h18.6v2.7c3.4-2.2,8-3.9,14.6-3.9,9.7,0,17.2,2.7,23,7.4,5.8-4.9,13.5-7.4,23-7.4,20.9,0,33.1,11.9,33.1,32.8v42.6h-20.2v-42.3c0-7.1-5.8-12.9-12.9-12.9s-12.9,5-12.9,12v43.2h-20.2v-42.3c0-7.1-5.8-12.9-12.9-12.9s-12.5,5-12.9,12v43.2h-20.2v-74.3Z"/>
    <path class="st3" d="M425,148.4l8.2,14.4c-10,7.1-18,10-30.1,10-22.3,0-38.5-16.2-38.5-38.5s16.3-38,37.4-38,34,15.1,34,36.5-.1,5.5-.4,8.5h-48.6c-.3,0-.4.3-.4.7,2.2,7.3,9.4,12.3,18.4,12.3s13.2-2.4,20-5.9ZM390.5,118.5c-3,3-4.3,6.4-4.3,7.4s.1.4.6.4h28.1c.4,0,.6-.1.6-.3,0-2.1-.9-5.8-3.3-8.2-2.4-2.4-5.5-4-11-4s-8,1.9-10.7,4.6Z"/>
    <path class="st3" d="M241.6,188.6h18.6v2.7c3.4-2.2,8-3.9,14.6-3.9,9.7,0,17.2,2.7,23,7.4,5.8-4.9,13.5-7.4,23-7.4,20.9,0,33.1,11.9,33.1,32.8v42.6h-20.2v-42.3c0-7.1-5.8-12.9-12.9-12.9s-12.9,5-12.9,12v43.2h-20.2v-42.3c0-7.1-5.8-12.9-12.9-12.9s-12.5,5-12.9,12v43.2h-20.2v-74.3Z"/>
    <path class="st3" d="M433.2,262.9h-18.9v-2.8c-3.1,2.4-8.5,4-14.3,4-20.9,0-33.1-11.9-33.1-32.8v-42.6h20.2v42.3c0,7.1,5.8,12.9,12.9,12.9s12.9-5,12.9-12v-43.2h20.2v74.3Z"/>
    <path class="st3" d="M504.3,258.7c-5.3,3-11.7,5.3-19.5,5.3-20.9,0-38.3-17.4-38.3-38.3s17.4-38.3,38.3-38.3,13.1,1.8,18.4,4.8v-33.3h20.2v104h-19.2v-4.2ZM484.8,244.2c10.2,0,18.3-8,18.3-18.4s-8-18.4-18.3-18.4-18.3,8-18.3,18.4,8,18.4,18.3,18.4Z"/>
    <path class="st3" d="M595.9,239.7l8.2,14.4c-10,7.1-18,10-30.1,10-22.3,0-38.5-16.2-38.5-38.5s16.3-38,37.4-38,34,15.1,34,36.5-.1,5.5-.4,8.5h-48.6c-.3,0-.4.3-.4.7,2.2,7.3,9.4,12.3,18.4,12.3s13.2-2.4,20-5.9ZM561.5,209.9c-3,3-4.3,6.4-4.3,7.4s.1.4.6.4h28.1c.4,0,.6-.1.6-.3,0-2.1-.9-5.8-3.3-8.2-2.4-2.4-5.5-4-11-4s-8,1.9-10.7,4.6Z"/>
  </g>
  <polygon class="st3" points="121 176.3 153.6 149.4 153.6 179.3 174.9 196.7 174.9 104.5 121 148.9 117 159.2 121 176.3"/>
  <polygon class="st2" points="121 176.3 88.3 149.4 88.3 179.3 67.1 196.7 67.1 104.5 121 148.9 121 176.3"/>
  <path class="st0" d="M132.8,68.7H35.7v169.2h0v46.8l43.4-46.8h53.7c46.3,0,84.6-38.3,84.6-84.6s-38.1-84.6-84.6-84.6ZM174.9,196.7l-21.2-17.5v-29.9l-32.7,26.9-32.7-26.9v29.9l-21.2,17.5v-92.2l53.9,44.4,53.9-44.4v92.2Z"/>
  <g>
    <path class="st1" d="M239.8,30.2h16.9c9.4,0,16,7.2,16,16.5s-6.6,16.9-16,16.9h-6c-.3,0-.4.1-.4.4v21.2h-10.5V30.2ZM250.2,52.7c0,.3.1.4.4.4h6c4.3,0,5.5-4,5.5-6.4s-1.2-6-5.5-6h-6c-.3,0-.4.1-.4.4v11.5Z"/>
    <path class="st1" d="M292.7,48c10.4,0,18.8,8.4,18.8,18.8s-8.4,19-18.8,19-19-8.4-19-19,8.4-18.8,19-18.8ZM292.7,75.8c4.9,0,8.9-4,8.9-8.9s-4-8.9-8.9-8.9-8.9,4-8.9,8.9,4,8.9,8.9,8.9Z"/>
    <path class="st1" d="M317.1,48.6h9.3v1.6c1.8-1.5,4.5-2.2,7.1-2.2h5.1v10h-5.2c-3.4,0-6.2,2.4-6.4,5.9v21.3h-10v-36.7Z"/>
    <path class="st1" d="M351.3,38h10v10.6h8.4v8.9h-8.4v27.7h-10v-27.7h-8.6v-8.9h8.6v-10.6Z"/>
    <path class="st1" d="M409.5,48.6v36.7h-9.1v-2.1c-2.9,1.8-6.3,2.7-9.9,2.7-10.3,0-18.9-8.6-18.9-18.9s8.6-18.9,18.9-18.9,7,1,9.9,2.8v-2.2h9.1ZM390.5,76c5.1,0,9-4,9-9.1s-4-9.1-9-9.1-9,4-9,9.1,4,9.1,9,9.1Z"/>
    <path class="st1" d="M416.8,33.9h10v51.3h-10v-51.3Z"/>
  </g>
</svg>